<svg xmlns="http://www.w3.org/2000/svg" viewBox="0 0 1146 1146"><defs><style>.cls-1{fill:#00005b;}.cls-2{fill:#9898fe;}</style></defs><g id="Layer_2" data-name="Layer 2"><g id="Layer_1-2" data-name="Layer 1"><rect class="cls-1" width="1146" height="1146" rx="85.67"/><path class="cls-2" d="M314,640.38,276.42,765H193.14l141.51-441H437.24L580.51,765H494l-39.9-124.65Zm126.79-60.89L406.06,470.84c-8.47-27.33-15.75-57.32-22.41-82.9H382.2c-6.4,25.86-13.15,56.4-20.94,82.62L327.2,579.49Z"/><path class="cls-2" d="M635.73,541.23c0-36.79-1.16-67.13-2.61-94.72h70.37l4,47.82h1.86c14.1-24.72,48.59-55,101.51-55,55.53,0,113.22,35.76,113.22,136.51V765h-80.6V585.31c0-45.7-16.77-80.52-60.77-80.52-32.06,0-54.23,22.63-62.65,47.26-2.48,6.59-3.7,16.39-3.7,25.55V765h-80.6Z"/></g></g></svg>