<svg xmlns="http://www.w3.org/2000/svg" viewBox="0 0 1239.26 1210.59"><defs><style>.cls-1{fill:#001e36;}.cls-2{fill:#30a8ff;}</style></defs><g id="Layer_2" data-name="Layer 2"><g id="Ñëîé_1" data-name="Ñëîé 1"><rect class="cls-1" width="1239.26" height="1210.59" rx="222.56"/><path class="cls-2" d="M486.06,310.14h-202V848.33H397.45V680.23h88.61a185,185,0,0,0,185-185C671.1,393,588.25,310.14,486.06,310.14Zm47.41,246.79a87.09,87.09,0,0,1-61.74,25.56H397.45V407.88h74.28a87.31,87.31,0,0,1,61.74,149Z"/><path class="cls-2" d="M1024.9,727.66c0,35.72-16.66,69.81-43,93.63-29.62,26.85-70.77,38.3-109.89,41.28q-7,.54-14.08.68c-43.47.89-89.17-8.35-128.68-26.61l-1.25-.58q.09-47.53.19-95.06c0,1.73,31.42,9.33,35.32,10.61,35.86,11.76,78.67,20.57,116.44,15.73,8-1,16.18-3,22.37-8.14,23.3-19.36-.32-43.43-19.31-52.66-20.6-10-42.78-16.34-63.82-25.39-19.93-8.58-39-19.7-54.84-34.5-52.53-48.95-50.5-131.16,3.05-178.72,30.32-26.92,71.26-35.47,110.79-37.21a284.08,284.08,0,0,1,120.08,21.07,7.5,7.5,0,0,1,3.8,2.63,7.58,7.58,0,0,1,.71,3.9q0,48.53.11,97.06c-6.17-5.27-14.6-7.45-21.92-10.65a252.41,252.41,0,0,0-24.27-9.17c-29.18-9.35-67.06-18-97-7.72-11,3.77-19.21,11.62-19.21,23.81,0,18.85,18.48,27.92,33.59,34.81,18.71,8.53,38.66,13.72,57.32,22.37C979.87,631.3,1024.9,669.84,1024.9,727.66Z"/></g></g></svg>